<?xml version="1.0" encoding="utf-8"?>
<!-- Generator: Adobe Illustrator 24.0.0, SVG Export Plug-In . SVG Version: 6.00 Build 0)  -->
<svg version="1.1" id="Layer_1" xmlns="http://www.w3.org/2000/svg" xmlns:xlink="http://www.w3.org/1999/xlink" x="0px" y="0px"
	 viewBox="0 0 213.19 215.28" style="enable-background:new 0 0 213.19 215.28;" xml:space="preserve">
<style type="text/css">
	.st0{clip-path:url(#SVGID_2_);fill:#184171;}
	.st1{clip-path:url(#SVGID_2_);fill:#FAC0B5;}
	.st2{clip-path:url(#SVGID_2_);fill:#F37667;}
	.st3{clip-path:url(#SVGID_2_);fill:none;stroke:#000000;stroke-width:0.372;stroke-miterlimit:10;}
	.st4{fill:#FAC0B5;}
	.st5{fill:#F37667;}
</style>
<g>
	<defs>
		<rect id="SVGID_1_" x="5.03" y="6.46" width="202.4" height="202.4"/>
	</defs>
	<clipPath id="SVGID_2_">
		<use xlink:href="#SVGID_1_"  style="overflow:visible;"/>
	</clipPath>
	<path class="st0" d="M106.23,208.86c55.89,0,101.2-45.31,101.2-101.2S162.12,6.46,106.23,6.46S5.03,51.77,5.03,107.66
		S50.34,208.86,106.23,208.86"/>
	<path class="st1" d="M114.34,139.55c0,4.36-3.53,7.89-7.89,7.89s-7.9-3.53-7.9-7.89s3.54-7.9,7.9-7.9S114.34,135.19,114.34,139.55"
		/>
	<path class="st2" d="M144.11,113.85l-23.81,23.54c0,0-1.84-12.51-13.86-12.51c-12.03,0-13.91,12.78-13.91,12.78L68.8,113.85
		c0,0,4.68-12.67,21.16-15.27c16.48-2.6,23.25,1.56,33.43,11.74C133.57,120.5,144.11,113.85,144.11,113.85"/>
	<path class="st3" d="M63.47,108.32c-0.02,0.26-0.03,0.4-0.03,0.4"/>
	<path class="st1" d="M141.14,110.87c-4.36,0.24-9.93-0.92-15.41-6.16C114.9,94.35,107.44,89.69,91.24,91.4
		c-1.19,0.13-2.43,0.28-3.72,0.48c-17.8,2.69-23.56,15.21-24.13,16.57L49.97,95.02c-10.4-10.4-10.4-27.26,0-37.66
		c5.2-5.2,12.01-7.8,18.83-7.8s13.63,2.6,18.83,7.8l18.83,18.83L141.14,110.87z"/>
	<path class="st2" d="M75.19,74.69c0,4.36-3.53,7.89-7.89,7.89s-7.9-3.53-7.9-7.89c0-4.36,3.54-7.9,7.9-7.9S75.19,70.33,75.19,74.69
		"/>
	<path class="st2" d="M170.74,76.19c0,6.82-2.6,13.63-7.8,18.83l-15.56,15.56l-37.66-37.66l15.56-15.56
		c10.4-10.4,27.26-10.4,37.66,0C168.14,62.56,170.74,69.37,170.74,76.19"/>
	<path class="st1" d="M152.6,75.6c0,4.36-3.53,7.89-7.89,7.89c-4.36,0-7.9-3.53-7.9-7.89c0-4.36,3.54-7.9,7.9-7.9
		C149.07,67.7,152.6,71.24,152.6,75.6"/>
</g>
<g>
	<path class="st4" d="M69.81,164.83c0.28,0,0.51,0.09,0.68,0.28c0.18,0.19,0.26,0.42,0.26,0.7v10.22c0,0.3-0.1,0.56-0.31,0.76
		c-0.2,0.2-0.46,0.31-0.76,0.31c-0.15,0-0.31-0.03-0.46-0.08c-0.16-0.05-0.28-0.13-0.36-0.22l-6.89-8.75l0.46-0.28v8.35
		c0,0.28-0.09,0.51-0.27,0.7c-0.18,0.19-0.42,0.28-0.71,0.28c-0.28,0-0.51-0.09-0.68-0.28c-0.18-0.19-0.26-0.42-0.26-0.7V165.9
		c0-0.3,0.1-0.56,0.31-0.76c0.2-0.2,0.46-0.31,0.76-0.31c0.16,0,0.33,0.03,0.51,0.1c0.18,0.06,0.3,0.16,0.39,0.29l6.68,8.52
		l-0.3,0.21v-8.14c0-0.28,0.09-0.51,0.26-0.7C69.28,164.93,69.51,164.83,69.81,164.83z"/>
	<path class="st4" d="M84.67,170.97c0,0.88-0.15,1.7-0.44,2.46s-0.7,1.43-1.24,2.01c-0.53,0.58-1.16,1.03-1.89,1.36
		s-1.53,0.49-2.39,0.49s-1.66-0.16-2.38-0.49c-0.73-0.33-1.35-0.78-1.88-1.36c-0.53-0.58-0.94-1.25-1.24-2.01
		c-0.29-0.76-0.44-1.58-0.44-2.46s0.15-1.69,0.44-2.46c0.29-0.76,0.7-1.43,1.24-2.01c0.53-0.58,1.16-1.03,1.88-1.36
		c0.72-0.33,1.52-0.49,2.38-0.49s1.66,0.16,2.39,0.49s1.36,0.78,1.89,1.36c0.53,0.58,0.94,1.25,1.24,2.01
		C84.53,169.27,84.67,170.09,84.67,170.97z M82.4,170.97c0-0.78-0.16-1.49-0.47-2.13c-0.32-0.64-0.75-1.14-1.3-1.52
		c-0.55-0.37-1.19-0.56-1.91-0.56s-1.36,0.19-1.91,0.56c-0.55,0.38-0.98,0.88-1.29,1.51c-0.31,0.63-0.46,1.34-0.46,2.14
		c0,0.78,0.15,1.49,0.46,2.13c0.31,0.64,0.74,1.14,1.29,1.52c0.55,0.38,1.19,0.56,1.91,0.56s1.36-0.19,1.91-0.56
		c0.55-0.37,0.98-0.88,1.3-1.52C82.24,172.46,82.4,171.75,82.4,170.97z"/>
</g>
<g>
	<path class="st4" d="M86.64,166.85c-0.3,0-0.56-0.09-0.76-0.28c-0.2-0.19-0.31-0.43-0.31-0.74c0-0.3,0.1-0.55,0.31-0.73
		c0.2-0.18,0.46-0.27,0.76-0.27h7.79c0.3,0,0.56,0.09,0.76,0.28c0.2,0.19,0.31,0.43,0.31,0.74c0,0.3-0.1,0.55-0.31,0.73
		c-0.21,0.18-0.46,0.27-0.76,0.27H86.64z M90.51,177.11c-0.33,0-0.6-0.1-0.81-0.31c-0.21-0.2-0.32-0.46-0.32-0.76v-10.17h2.28v10.17
		c0,0.3-0.11,0.56-0.32,0.76C91.13,177,90.85,177.11,90.51,177.11z"/>
</g>
<g>
	<path class="st5" d="M106.73,167.59l-3.79,8.91c-0.08,0.22-0.21,0.39-0.38,0.52c-0.17,0.12-0.35,0.18-0.55,0.18
		c-0.32,0-0.55-0.09-0.7-0.26c-0.15-0.17-0.23-0.39-0.23-0.65c0-0.11,0.02-0.22,0.05-0.33l4.37-10.49c0.09-0.23,0.24-0.41,0.43-0.54
		c0.19-0.13,0.4-0.18,0.62-0.16c0.21,0,0.41,0.06,0.59,0.18c0.18,0.12,0.31,0.29,0.39,0.52l4.31,10.28
		c0.06,0.15,0.09,0.29,0.09,0.42c0,0.32-0.1,0.57-0.31,0.75c-0.21,0.19-0.43,0.28-0.67,0.28c-0.21,0-0.4-0.06-0.57-0.19
		c-0.17-0.13-0.3-0.3-0.39-0.53l-3.77-8.78L106.73,167.59z M103.49,174.35l0.96-2.02h4.73l0.33,2.02H103.49z"/>
	<path class="st5" d="M120.2,175.05c0.3,0,0.56,0.1,0.76,0.29c0.2,0.19,0.31,0.44,0.31,0.75c0,0.29-0.1,0.53-0.31,0.73
		c-0.21,0.19-0.46,0.29-0.76,0.29h-5.7c-0.3,0-0.56-0.1-0.76-0.31c-0.21-0.2-0.31-0.46-0.31-0.76V165.9c0-0.3,0.11-0.56,0.32-0.76
		c0.21-0.2,0.48-0.31,0.81-0.31c0.28,0,0.53,0.1,0.75,0.31c0.22,0.21,0.33,0.46,0.33,0.76v9.45l-0.39-0.3H120.2z"/>
	<path class="st5" d="M134.58,170.97c0,0.88-0.15,1.7-0.44,2.46s-0.7,1.43-1.24,2.01c-0.53,0.58-1.16,1.03-1.89,1.36
		s-1.53,0.49-2.39,0.49s-1.66-0.16-2.38-0.49c-0.73-0.33-1.35-0.78-1.88-1.36c-0.53-0.58-0.94-1.25-1.24-2.01
		c-0.29-0.76-0.44-1.58-0.44-2.46s0.15-1.69,0.44-2.46c0.29-0.76,0.7-1.43,1.24-2.01c0.53-0.58,1.16-1.03,1.88-1.36
		c0.72-0.33,1.52-0.49,2.38-0.49s1.66,0.16,2.39,0.49s1.36,0.78,1.89,1.36c0.53,0.58,0.94,1.25,1.24,2.01
		C134.43,169.27,134.58,170.09,134.58,170.97z M132.3,170.97c0-0.78-0.16-1.49-0.47-2.13c-0.32-0.64-0.75-1.14-1.3-1.52
		c-0.55-0.37-1.19-0.56-1.91-0.56s-1.36,0.19-1.91,0.56c-0.55,0.38-0.98,0.88-1.29,1.51c-0.31,0.63-0.46,1.34-0.46,2.14
		c0,0.78,0.15,1.49,0.46,2.13c0.31,0.64,0.74,1.14,1.29,1.52c0.55,0.38,1.19,0.56,1.91,0.56s1.36-0.19,1.91-0.56
		c0.55-0.37,0.98-0.88,1.3-1.52C132.14,172.46,132.3,171.75,132.3,170.97z"/>
	<path class="st5" d="M145.9,164.83c0.28,0,0.51,0.09,0.68,0.28c0.18,0.19,0.26,0.42,0.26,0.7v10.22c0,0.3-0.1,0.56-0.31,0.76
		c-0.2,0.2-0.46,0.31-0.76,0.31c-0.15,0-0.31-0.03-0.46-0.08c-0.16-0.05-0.28-0.13-0.36-0.22l-6.89-8.75l0.46-0.28v8.35
		c0,0.28-0.09,0.51-0.27,0.7c-0.18,0.19-0.42,0.28-0.71,0.28c-0.28,0-0.51-0.09-0.68-0.28c-0.18-0.19-0.26-0.42-0.26-0.7V165.9
		c0-0.3,0.1-0.56,0.31-0.76c0.2-0.2,0.46-0.31,0.76-0.31c0.16,0,0.33,0.03,0.51,0.1c0.18,0.06,0.3,0.16,0.39,0.29l6.68,8.52
		l-0.3,0.21v-8.14c0-0.28,0.09-0.51,0.26-0.7C145.37,164.93,145.61,164.83,145.9,164.83z"/>
</g>
<g>
	<path class="st5" d="M150.39,164.83h5.87c0.3,0,0.56,0.1,0.76,0.29c0.2,0.19,0.31,0.44,0.31,0.75c0,0.29-0.1,0.53-0.31,0.71
		c-0.21,0.18-0.46,0.27-0.76,0.27h-4.91l0.16-0.3v3.42l-0.14-0.14h4.1c0.3,0,0.56,0.1,0.76,0.29c0.2,0.19,0.31,0.44,0.31,0.75
		c0,0.29-0.1,0.53-0.31,0.71c-0.21,0.18-0.46,0.27-0.76,0.27h-4.05l0.09-0.14v3.54l-0.14-0.16h4.89c0.3,0,0.56,0.1,0.76,0.31
		c0.2,0.21,0.31,0.44,0.31,0.71c0,0.29-0.1,0.53-0.31,0.72c-0.21,0.19-0.46,0.28-0.76,0.28h-5.87c-0.3,0-0.56-0.1-0.76-0.31
		c-0.21-0.2-0.31-0.46-0.31-0.76V165.9c0-0.3,0.1-0.56,0.31-0.76C149.83,164.93,150.09,164.83,150.39,164.83z"/>
</g>
</svg>
